<svg width="112" height="126" viewBox="0 0 112 126" fill="none" xmlns="http://www.w3.org/2000/svg">
<g clip-path="url(#clip0_193_3190)">
<path d="M62.8394 22.7902H16.5074V50.1513H62.8394V22.7902Z" fill="#5E00FF"/>
<path d="M57.8186 28.1815H21.4944V50.1546H57.8186V28.1815Z" fill="#360193"/>
<path d="M33.4239 34.7859H22.4053V49.1674H33.4239V34.7859Z" fill="url(#paint0_linear_193_3190)"/>
<path d="M45.1838 34.7859H34.1652V49.1674H45.1838V34.7859Z" fill="url(#paint1_linear_193_3190)"/>
<path d="M56.9777 34.7859H45.9591V49.1674H56.9777V34.7859Z" fill="url(#paint2_linear_193_3190)"/>
<path d="M33.4239 29.125H22.4053V33.9469H33.4239V29.125Z" fill="url(#paint3_linear_193_3190)"/>
<path d="M45.1838 29.125H34.1652V33.9469H45.1838V29.125Z" fill="url(#paint4_linear_193_3190)"/>
<path d="M56.9777 29.125H45.9591V33.9469H56.9777V29.125Z" fill="url(#paint5_linear_193_3190)"/>
<path d="M78.8466 86.8125H30.2233C30.1071 86.8125 29.9957 86.7664 29.9136 86.6842C29.8314 86.6021 29.7852 86.4906 29.7852 86.3745V0.416047C29.7931 0.350397 29.8146 0.28712 29.8484 0.230322C29.8822 0.173523 29.9276 0.12447 29.9816 0.0863442C30.0357 0.0482184 30.0971 0.0218709 30.1619 0.00901075C30.2268 -0.00384939 30.2936 -0.00293465 30.3581 0.0116947L78.9814 17.264C79.0651 17.2957 79.138 17.3506 79.1917 17.4222C79.2454 17.4938 79.2776 17.5792 79.2846 17.6684V86.3745C79.2846 86.4906 79.2385 86.6021 79.1563 86.6842C79.0742 86.7664 78.9628 86.8125 78.8466 86.8125Z" fill="#FDFEFF"/>
<path d="M75.5431 86.7788H33.5242V4.86392L75.5431 20.6336V86.7788Z" fill="#5E00FF"/>
<path d="M75.5422 86.7788H39.4538V16.6912L75.5422 30.574V86.7788Z" fill="#9991FF"/>
<path d="M69.0073 24.2391H49.5647V47.1625H69.0073V24.2391Z" fill="#5E00FF"/>
<path d="M58.7959 30.8772H50.4393V46.2864H58.7959V30.8772Z" fill="url(#paint6_linear_193_3190)"/>
<path d="M68.097 30.8772H59.7404V46.2864H68.097V30.8772Z" fill="url(#paint7_linear_193_3190)"/>
<path d="M67.9612 25.1826H50.4393V29.927H67.9612V25.1826Z" fill="url(#paint8_linear_193_3190)"/>
<path d="M45.0828 27.3391C45.0828 27.0972 44.8866 26.9011 44.6447 26.9011C44.4028 26.9011 44.2067 27.0972 44.2067 27.3391V28.7072C44.2067 28.9491 44.4028 29.1452 44.6447 29.1452C44.8866 29.1452 45.0828 28.9491 45.0828 28.7072V27.3391Z" fill="#FEDD00"/>
<path d="M44.9814 28.013C44.9814 27.8083 44.823 27.6424 44.6276 27.6424C44.4322 27.6424 44.2738 27.8083 44.2738 28.013V28.2523C44.2738 28.457 44.4322 28.6229 44.6276 28.6229C44.823 28.6229 44.9814 28.457 44.9814 28.2523V28.013Z" fill="#FDFEFF"/>
<path d="M44.6447 30.5739C45.1471 30.5739 45.5545 29.3972 45.5545 27.9457C45.5545 26.4941 45.1471 25.3174 44.6447 25.3174C44.1422 25.3174 43.7349 26.4941 43.7349 27.9457C43.7349 29.3972 44.1422 30.5739 44.6447 30.5739Z" fill="url(#paint9_radial_193_3190)"/>
<path d="M71.4666 40.2784H33.5587V41.2724H71.4666V40.2784Z" fill="#360193"/>
<path d="M36.2213 41.0871H35.8169V48.4463H36.2213V41.0871Z" fill="#360193"/>
<path d="M38.4106 41.0871H38.0062V48.4463H38.4106V41.0871Z" fill="#360193"/>
<path d="M40.6012 41.0871H40.1969V48.4463H40.6012V41.0871Z" fill="#360193"/>
<path d="M42.7919 41.0871H42.3876V48.4463H42.7919V41.0871Z" fill="#360193"/>
<path d="M44.9821 41.0871H44.5778V48.4463H44.9821V41.0871Z" fill="#360193"/>
<path d="M47.1718 41.0871H46.7675V48.4463H47.1718V41.0871Z" fill="#360193"/>
<path d="M49.3621 41.0871H48.9577V48.4463H49.3621V41.0871Z" fill="#360193"/>
<path d="M51.5523 41.0871H51.1479V48.4463H51.5523V41.0871Z" fill="#360193"/>
<path d="M53.7429 41.0871H53.3386V48.4463H53.7429V41.0871Z" fill="#360193"/>
<path d="M55.9327 41.0871H55.5283V48.4463H55.9327V41.0871Z" fill="#360193"/>
<path d="M58.1219 41.0871H57.7176V48.4463H58.1219V41.0871Z" fill="#360193"/>
<path d="M60.3136 41.0871H59.9092V48.4463H60.3136V41.0871Z" fill="#360193"/>
<path d="M62.5038 41.0871H62.0994V48.4463H62.5038V41.0871Z" fill="#360193"/>
<path d="M64.6604 41.0871H64.256V48.4463H64.6604V41.0871Z" fill="#360193"/>
<path d="M66.8497 41.0871H66.4453V48.4463H66.8497V41.0871Z" fill="#360193"/>
<path d="M69.0408 41.0871H68.6364V48.4463H69.0408V41.0871Z" fill="#360193"/>
<path d="M71.2315 41.0871H70.8271V48.4463H71.2315V41.0871Z" fill="#360193"/>
<path d="M73.4546 47.0849H33.2216V86.9169H73.4546V47.0849Z" fill="#360193"/>
<path d="M68.0639 51.6002H7.71443V88.0507H68.0639V51.6002Z" fill="#9991FF"/>
<path d="M68.0639 51.6002H7.71443V72.7478H68.0639V51.6002Z" fill="#5E00FF"/>
<path d="M11.0497 65.146C11.0497 64.9041 10.8536 64.708 10.6117 64.708C10.3698 64.708 10.1736 64.9041 10.1736 65.146V66.5141C10.1736 66.756 10.3698 66.9521 10.6117 66.9521C10.8536 66.9521 11.0497 66.756 11.0497 66.5141V65.146Z" fill="#FEDD00"/>
<path d="M10.9824 65.8199C10.9824 65.6152 10.824 65.4493 10.6286 65.4493C10.4332 65.4493 10.2748 65.6152 10.2748 65.8199V66.0592C10.2748 66.2639 10.4332 66.4298 10.6286 66.4298C10.824 66.4298 10.9824 66.2639 10.9824 66.0592V65.8199Z" fill="#FDFEFF"/>
<path d="M10.6116 68.3808C11.1141 68.3808 11.5214 67.2041 11.5214 65.7526C11.5214 64.301 11.1141 63.1243 10.6116 63.1243C10.1092 63.1243 9.70184 64.301 9.70184 65.7526C9.70184 67.2041 10.1092 68.3808 10.6116 68.3808Z" fill="url(#paint10_radial_193_3190)"/>
<path d="M63.5482 63.4612H12.1955V85.4344H63.5482V63.4612Z" fill="#360193"/>
<path d="M29.1444 70.0656H13.1051V84.4471H29.1444V70.0656Z" fill="url(#paint11_linear_193_3190)"/>
<path d="M45.9248 70.0656H29.8855V84.4471H45.9248V70.0656Z" fill="url(#paint12_linear_193_3190)"/>
<path d="M62.7056 70.0656H46.6663V84.4471H62.7056V70.0656Z" fill="url(#paint13_linear_193_3190)"/>
<path d="M29.1444 64.4047H13.1051V69.2266H29.1444V64.4047Z" fill="url(#paint14_linear_193_3190)"/>
<path d="M45.9248 64.4047H29.8855V69.2266H45.9248V64.4047Z" fill="url(#paint15_linear_193_3190)"/>
<path d="M62.7056 64.4047H46.6663V69.2266H62.7056V64.4047Z" fill="url(#paint16_linear_193_3190)"/>
<path d="M5.69254 50.4545V85.0068C5.69254 85.123 5.73869 85.2344 5.82084 85.3165C5.90299 85.3987 6.01441 85.4448 6.13058 85.4448H8.55669C8.67287 85.4448 8.78429 85.3987 8.86644 85.3165C8.94859 85.2344 8.99474 85.123 8.99474 85.0068V54.3633C8.99007 54.3074 8.99706 54.2512 9.01528 54.1982C9.0335 54.1451 9.06255 54.0965 9.10057 54.0553C9.13859 54.0141 9.18476 53.9813 9.23615 53.9589C9.28755 53.9365 9.34303 53.925 9.39909 53.9252H65.4692C65.5854 53.9252 65.6968 53.9714 65.7789 54.0535C65.8611 54.1357 65.9072 54.2471 65.9072 54.3633V85.4448H68.9736C69.0897 85.4448 69.2012 85.3987 69.2833 85.3165C69.3655 85.2344 69.4116 85.123 69.4116 85.0068V50.4545C69.4116 50.3384 69.3655 50.2269 69.2833 50.1448C69.2012 50.0626 69.0897 50.0165 68.9736 50.0165H6.13058C6.01441 50.0165 5.90299 50.0626 5.82084 50.1448C5.73869 50.2269 5.69254 50.3384 5.69254 50.4545Z" fill="#FDFEFF"/>
<path d="M65.9071 53.9926H38.5796V91.3547H65.9071V53.9926Z" fill="#9997F7"/>
<path d="M63.347 63.259H41.1414V89.4273H63.347V63.259Z" fill="#5E00FF"/>
<path d="M62.536 64.2362H41.9815V70.2913H62.536V64.2362Z" fill="url(#paint17_linear_193_3190)"/>
<path d="M48.2161 70.8069H41.8813V88.3962H48.2161V70.8069Z" fill="url(#paint18_linear_193_3190)"/>
<path d="M55.3271 70.8069H48.9922V88.3962H55.3271V70.8069Z" fill="url(#paint19_linear_193_3190)"/>
<path d="M62.5359 70.8069H56.201V88.3962H62.5359V70.8069Z" fill="url(#paint20_linear_193_3190)"/>
<path d="M102.03 101.012L77.1646 129.097L123.71 171.224L152 137.523L102.03 101.012Z" fill="#7B4EDB"/>
<path d="M127.546 166.635L81.7886 125.946" stroke="#97D9F7" stroke-width="0.32" stroke-miterlimit="10"/>
<path d="M133.197 159.888L87.6106 120.603" stroke="#A781F7" stroke-width="0.5" stroke-miterlimit="10"/>
<path d="M139.156 152.695L93.2275 114.712" stroke="#A781F7" stroke-width="0.5" stroke-miterlimit="10"/>
<path d="M146.041 144.612L98.7077 107.931" stroke="#A781F7" stroke-width="0.5" stroke-miterlimit="10"/>
<path d="M88.5015 114.061C81.6858 121.802 76.6511 128.549 77.2676 129.097C77.8841 129.645 84.1518 124.645 90.9675 116.904C97.7831 109.164 102.647 101.56 102.03 100.978C101.414 100.396 95.3514 106.287 88.5015 114.061Z" fill="#2E116C"/>
<path d="M39.5244 109.027L21.4063 101.834L11.1314 95.8064C11.1314 95.8064 11.3369 94.0597 14.1796 94.4021C17.0224 94.7446 39.5244 103.136 39.5244 103.136V109.027Z" fill="#D85BA9"/>
<path d="M39.5244 109.027L25.0025 102.04L15.0701 94.1625L37.5721 99.2999L39.5244 109.027Z" fill="#E869B1"/>
<path d="M38.4283 102.382L21.8173 98.1012L6.95292 90.0182L35.8254 95.7722L38.4283 102.382Z" fill="#F478B9"/>
<path d="M3.73339 84.641C6.37061 83.8533 28.6671 86.7645 28.6671 86.7645L38.4968 87.7235C38.3527 87.4186 38.2491 87.0962 38.1885 86.7645C37.9488 85.189 38.4625 83.0655 38.4625 83.0655C38.4625 83.0655 62.3345 84.1273 65.2458 84.1273C68.157 84.1273 75.3152 83.8533 81.1718 88.1002C87.0285 92.3472 91.892 100.156 91.892 100.156L97.6459 106.458C95.1457 111.904 88.9808 119.507 84.0831 123.001L82.9871 123.754L76.4454 117.932C76.4454 117.932 48.1209 109.917 40.449 109.404C40.0846 109.37 39.7397 109.224 39.4632 108.984C39.1867 108.744 38.9924 108.424 38.9078 108.068L35.8253 95.7722L16.714 92.587L0.000190735 88.614C0.000190735 88.614 1.06191 85.4288 3.73339 84.641Z" fill="#FF88C1"/>
<path d="M38.4968 87.7235C38.8464 88.1301 39.2497 88.4872 39.6955 88.7853C39.9198 88.9476 40.161 89.0854 40.4147 89.1963L41.2367 89.436L44.4219 90.0183C46.5797 90.395 48.7032 90.7033 50.8609 91.0115C53.0186 91.3197 55.1421 91.5937 57.2998 91.8335L58.9095 92.0047L59.6973 92.0732L60.5193 92.176C61.0276 92.2895 61.5136 92.4862 61.9578 92.7582C62.4202 93.0482 62.8264 93.4195 63.1565 93.8542C62.5861 92.8877 61.6667 92.1767 60.5878 91.8677L57.3683 91.3197L50.9294 90.3608L44.4904 89.5045L41.3052 89.1278C40.2092 89.0593 39.3187 88.4085 38.4968 87.7235Z" fill="#EE5096"/>
<path d="M44.0112 83.7163L38.9765 83.408C38.7403 84.3268 38.7169 85.2873 38.908 86.2165C38.908 86.2165 42.1618 87.0043 43.2577 86.285C44.3537 85.5658 44.0112 83.7163 44.0112 83.7163Z" fill="white"/>
<path d="M0.205791 88.7853L4.65824 89.8128C4.65824 89.8128 5.20624 88.6483 4.898 87.9976C4.58975 87.3468 2.56902 87.3126 1.64428 87.2441C1.51559 87.2408 1.38821 87.2706 1.27429 87.3305C1.16038 87.3905 1.06372 87.4786 0.993539 87.5866L0.205791 88.7853Z" fill="white"/>
<path d="M11.2341 95.8749L13.4946 97.2107C13.6058 97.064 13.6689 96.8864 13.675 96.7024C13.6811 96.5184 13.6301 96.337 13.5289 96.1832C13.2206 95.8064 12.2616 95.4297 11.9191 95.2927C11.8772 95.2763 11.831 95.274 11.7877 95.2864C11.7444 95.2988 11.7063 95.3251 11.6794 95.3612L11.2341 95.8749Z" fill="white"/>
</g>
<defs>
<linearGradient id="paint0_linear_193_3190" x1="27.9045" y1="3.72835" x2="27.9045" y2="58.0227" gradientUnits="userSpaceOnUse">
<stop stop-color="white"/>
<stop offset="1" stop-color="white" stop-opacity="0"/>
</linearGradient>
<linearGradient id="paint1_linear_193_3190" x1="39.6812" y1="3.72835" x2="39.6812" y2="58.0227" gradientUnits="userSpaceOnUse">
<stop stop-color="white"/>
<stop offset="1" stop-color="white" stop-opacity="0"/>
</linearGradient>
<linearGradient id="paint2_linear_193_3190" x1="51.4617" y1="3.72835" x2="51.4617" y2="58.0227" gradientUnits="userSpaceOnUse">
<stop stop-color="white"/>
<stop offset="1" stop-color="white" stop-opacity="0"/>
</linearGradient>
<linearGradient id="paint3_linear_193_3190" x1="27.9045" y1="18.7028" x2="27.9045" y2="36.9054" gradientUnits="userSpaceOnUse">
<stop stop-color="white"/>
<stop offset="1" stop-color="white" stop-opacity="0"/>
</linearGradient>
<linearGradient id="paint4_linear_193_3190" x1="39.6812" y1="18.7028" x2="39.6812" y2="36.9054" gradientUnits="userSpaceOnUse">
<stop stop-color="white"/>
<stop offset="1" stop-color="white" stop-opacity="0"/>
</linearGradient>
<linearGradient id="paint5_linear_193_3190" x1="51.4617" y1="18.7028" x2="51.4617" y2="36.9054" gradientUnits="userSpaceOnUse">
<stop stop-color="white"/>
<stop offset="1" stop-color="white" stop-opacity="0"/>
</linearGradient>
<linearGradient id="paint6_linear_193_3190" x1="55.2578" y1="8.23688" x2="54.4761" y2="45.8382" gradientUnits="userSpaceOnUse">
<stop stop-color="white"/>
<stop offset="1" stop-color="white" stop-opacity="0"/>
</linearGradient>
<linearGradient id="paint7_linear_193_3190" x1="64.5589" y1="8.49971" x2="63.7772" y2="46.101" gradientUnits="userSpaceOnUse">
<stop stop-color="white"/>
<stop offset="1" stop-color="white" stop-opacity="0"/>
</linearGradient>
<linearGradient id="paint8_linear_193_3190" x1="59.4159" y1="17.6178" x2="59.1598" y2="29.9472" gradientUnits="userSpaceOnUse">
<stop stop-color="white"/>
<stop offset="1" stop-color="white" stop-opacity="0"/>
</linearGradient>
<radialGradient id="paint9_radial_193_3190" cx="0" cy="0" r="1" gradientUnits="userSpaceOnUse" gradientTransform="translate(44.6413 29.3817) scale(0.9536 2.50796)">
<stop stop-color="white"/>
<stop offset="0.87" stop-color="white" stop-opacity="0"/>
</radialGradient>
<radialGradient id="paint10_radial_193_3190" cx="0" cy="0" r="1" gradientUnits="userSpaceOnUse" gradientTransform="translate(10.6184 67.316) scale(0.953595 2.50796)">
<stop stop-color="white"/>
<stop offset="0.87" stop-color="white" stop-opacity="0"/>
</radialGradient>
<linearGradient id="paint11_linear_193_3190" x1="21.1079" y1="39.0114" x2="21.1079" y2="93.3057" gradientUnits="userSpaceOnUse">
<stop stop-color="white"/>
<stop offset="1" stop-color="white" stop-opacity="0"/>
</linearGradient>
<linearGradient id="paint12_linear_193_3190" x1="37.895" y1="39.0114" x2="37.895" y2="93.3057" gradientUnits="userSpaceOnUse">
<stop stop-color="white"/>
<stop offset="1" stop-color="white" stop-opacity="0"/>
</linearGradient>
<linearGradient id="paint13_linear_193_3190" x1="54.686" y1="39.0114" x2="54.686" y2="93.3057" gradientUnits="userSpaceOnUse">
<stop stop-color="white"/>
<stop offset="1" stop-color="white" stop-opacity="0"/>
</linearGradient>
<linearGradient id="paint14_linear_193_3190" x1="21.1079" y1="53.9859" x2="21.1079" y2="72.1885" gradientUnits="userSpaceOnUse">
<stop stop-color="white"/>
<stop offset="1" stop-color="white" stop-opacity="0"/>
</linearGradient>
<linearGradient id="paint15_linear_193_3190" x1="37.895" y1="53.9859" x2="37.895" y2="72.1885" gradientUnits="userSpaceOnUse">
<stop stop-color="white"/>
<stop offset="1" stop-color="white" stop-opacity="0"/>
</linearGradient>
<linearGradient id="paint16_linear_193_3190" x1="54.686" y1="53.9859" x2="54.686" y2="72.1885" gradientUnits="userSpaceOnUse">
<stop stop-color="white"/>
<stop offset="1" stop-color="white" stop-opacity="0"/>
</linearGradient>
<linearGradient id="paint17_linear_193_3190" x1="52.2419" y1="51.1419" x2="52.2419" y2="74.008" gradientUnits="userSpaceOnUse">
<stop stop-color="white"/>
<stop offset="1" stop-color="white" stop-opacity="0"/>
</linearGradient>
<linearGradient id="paint18_linear_193_3190" x1="45.7496" y1="45.1238" x2="44.86" y2="87.8807" gradientUnits="userSpaceOnUse">
<stop stop-color="white"/>
<stop offset="1" stop-color="white" stop-opacity="0"/>
</linearGradient>
<linearGradient id="paint19_linear_193_3190" x1="52.8639" y1="45.2721" x2="51.9709" y2="88.0289" gradientUnits="userSpaceOnUse">
<stop stop-color="white"/>
<stop offset="1" stop-color="white" stop-opacity="0"/>
</linearGradient>
<linearGradient id="paint20_linear_193_3190" x1="60.0592" y1="45.4237" x2="59.1697" y2="88.1806" gradientUnits="userSpaceOnUse">
<stop stop-color="white"/>
<stop offset="1" stop-color="white" stop-opacity="0"/>
</linearGradient>
<clipPath id="clip0_193_3190">
<rect width="112" height="126" rx="16" fill="white"/>
</clipPath>
</defs>
</svg>
